<svg id="Layer_1" data-name="Layer 1" xmlns="http://www.w3.org/2000/svg" viewBox="0 0 334.56 334.57"><defs><style>.cls-1{fill:#0ca678;}</style></defs><path d="M429.84,368.24" transform="translate(-262.45 -200.85)"/><path class="cls-1" d="M435.68,200.85a10.87,10.87,0,0,0,1.27.22q53.66,2.3,96,35.35c27.5,21.51,46.4,49.12,56.84,82.46a165.5,165.5,0,0,1,6.36,30.61,181.3,181.3,0,0,1,.83,23.3,161.09,161.09,0,0,1-14.13,63.11,167.8,167.8,0,0,1-95.1,89.2,161.65,161.65,0,0,1-31.8,8.25,167.3,167.3,0,0,1-171-81.8,166.3,166.3,0,0,1-22-73.73c-.07-1.35-.34-2.68-.52-4V362.42a11.38,11.38,0,0,0,.29-1.41c.2-2.27.36-4.55.54-6.82a156.74,156.74,0,0,1,5.45-30.78c10.11-35.65,29.73-65,59-87.64,28-21.67,59.85-33.22,95.29-34.7a11.42,11.42,0,0,0,1.28-.22Zm-158,167.26c0,83.79,68,152.27,152.23,152.29,84.69,0,152.29-68.95,152.32-152.2,0-83.92-68.32-152.4-152.3-152.38S277.65,284.19,277.64,368.11Z" transform="translate(-262.45 -200.85)"/><path class="cls-1" d="M362.13,451.89V450c0-5,0-10,0-15a1.7,1.7,0,0,1,.81-1.69,141.57,141.57,0,0,1,38-17.32,107.59,107.59,0,0,1,35.47-3.85,114.39,114.39,0,0,1,36.95,8.74,149.86,149.86,0,0,1,23.42,12.33c.49.31,1,.56,1,1.3,0,5.68,0,11.37,0,17.09-.68.15-1-.34-1.42-.62a154.35,154.35,0,0,0-17.11-10.8,111.7,111.7,0,0,0-30.29-11.35,91.49,91.49,0,0,0-25.36-1.72c-14.37,1-27.76,5.35-40.52,11.86a151.45,151.45,0,0,0-19.22,11.81C363.36,451.06,362.88,451.37,362.13,451.89Z" transform="translate(-262.45 -200.85)"/><path class="cls-1" d="M484.49,280.4,528,308.74c-2.74,4.21-5.41,8.3-8.16,12.54l-43.5-28.34Z" transform="translate(-262.45 -200.85)"/><path class="cls-1" d="M374.9,280.44c2.78,4.19,5.48,8.27,8.27,12.46l-42.7,28.34-8.27-12.47Z" transform="translate(-262.45 -200.85)"/><path class="cls-1" d="M383.8,334.82a14,14,0,0,1-27.93-.1,14,14,0,1,1,27.93.1Z" transform="translate(-262.45 -200.85)"/><path class="cls-1" d="M488.21,348.72a14,14,0,1,1,14-14A14,14,0,0,1,488.21,348.72Z" transform="translate(-262.45 -200.85)"/></svg>